<?xml version="1.0" encoding="UTF-8"?>
<svg id="Layer_1" data-name="Layer 1" xmlns="http://www.w3.org/2000/svg" xmlns:xlink="http://www.w3.org/1999/xlink" viewBox="0 0 512 512">
  <defs>
    <style>
      .cls-1 {
        fill: url(#linear-gradient-2);
      }

      .cls-2 {
        fill: #071252;
      }

      .cls-3 {
        fill: url(#linear-gradient-6);
      }

      .cls-4 {
        fill: url(#linear-gradient-5);
      }

      .cls-5 {
        fill: url(#linear-gradient-7);
      }

      .cls-6 {
        fill: url(#linear-gradient-9);
      }

      .cls-7 {
        fill: url(#linear-gradient-3);
      }

      .cls-8 {
        fill: url(#linear-gradient);
      }

      .cls-9 {
        fill: url(#linear-gradient-4);
      }

      .cls-10 {
        fill: url(#linear-gradient-8);
      }
    </style>
    <linearGradient id="linear-gradient" x1="83.18" y1="267.79" x2="116.13" y2="267.79" gradientTransform="translate(154.45 -216.79)" gradientUnits="userSpaceOnUse">
      <stop offset="0" stop-color="#00ff9d"/>
      <stop offset=".13" stop-color="#03f8a2"/>
      <stop offset=".33" stop-color="#0ce4b2"/>
      <stop offset=".56" stop-color="#1bc5cc"/>
      <stop offset=".72" stop-color="#29abe2"/>
    </linearGradient>
    <linearGradient id="linear-gradient-2" x1="130.18" y1="380.29" x2="163.13" y2="380.29" gradientTransform="translate(-5.05 -282.29)" xlink:href="#linear-gradient"/>
    <linearGradient id="linear-gradient-3" x1="176.18" y1="354.29" x2="209.13" y2="354.29" gradientTransform="translate(-25.05 -210.29)" xlink:href="#linear-gradient"/>
    <linearGradient id="linear-gradient-4" x1="223.18" y1="433.29" x2="256.13" y2="433.29" gradientTransform="translate(-151.05 -242.29)" xlink:href="#linear-gradient"/>
    <linearGradient id="linear-gradient-5" x1="305.18" y1="406.79" x2="338.13" y2="406.79" gradientTransform="translate(-206.55 -133.79)" xlink:href="#linear-gradient"/>
    <linearGradient id="linear-gradient-6" x1="352.18" y1="314.29" x2="385.13" y2="314.29" gradientTransform="translate(-161.05 5.71)" xlink:href="#linear-gradient"/>
    <linearGradient id="linear-gradient-7" x1="398.18" y1="454.29" x2="431.13" y2="454.29" gradientTransform="translate(-347.05 -88.29)" xlink:href="#linear-gradient"/>
    <linearGradient id="linear-gradient-8" x1="444.18" y1="420.29" x2="477.13" y2="420.29" gradientTransform="translate(-359.05 -8.29)" xlink:href="#linear-gradient"/>
    <linearGradient id="linear-gradient-9" x1="490.18" y1="375.29" x2="523.13" y2="375.29" gradientTransform="translate(-360.05 82.71)" xlink:href="#linear-gradient"/>
  </defs>
  <rect class="cls-2" width="512" height="512"/>
  <rect class="cls-8" x="239" y="-171" width="34" height="444" transform="translate(307 -205) rotate(90)"/>
  <rect class="cls-1" x="126.5" y="-11.5" width="34" height="219" transform="translate(241.5 -45.5) rotate(90)"/>
  <rect class="cls-7" x="152.5" y="8.5" width="34" height="271" transform="translate(313.5 -25.5) rotate(90)"/>
  <rect class="cls-9" x="73.5" y="134.5" width="34" height="113" transform="translate(281.5 100.5) rotate(90)"/>
  <rect class="cls-4" x="100" y="190" width="34" height="166" transform="translate(390 156) rotate(90)"/>
  <rect class="cls-3" x="192.5" y="144.5" width="34" height="351" transform="translate(529.5 110.5) rotate(90)"/>
  <rect class="cls-5" x="52.5" y="330.5" width="34" height="71" transform="translate(435.5 296.5) rotate(90)"/>
  <rect class="cls-10" x="86.5" y="342.5" width="34" height="139" transform="translate(515.5 308.5) rotate(90)"/>
  <rect class="cls-6" x="131.5" y="343.5" width="34" height="229" transform="translate(606.5 309.5) rotate(90)"/>
</svg>